<svg width="312" height="120" viewBox="0 0 312 120" fill="none" xmlns="http://www.w3.org/2000/svg">
<path d="M17.7539 43.8242L14.2383 40.3086C14.0625 40.168 13.8516 40.0625 13.6406 40.0625H13.0781C14.0273 38.832 14.625 37.2852 14.625 35.5625C14.625 31.5547 11.3203 28.25 7.3125 28.25C3.26953 28.25 0 31.5547 0 35.5625C0 39.6055 3.26953 42.875 7.3125 42.875C9 42.875 10.5469 42.3125 11.8125 41.3281V41.9258C11.8125 42.1367 11.8828 42.3477 12.0586 42.5234L15.5391 46.0039C15.8906 46.3555 16.418 46.3555 16.7344 46.0039L17.7188 45.0195C18.0703 44.7031 18.0703 44.1758 17.7539 43.8242ZM7.3125 40.0625C4.81641 40.0625 2.8125 38.0586 2.8125 35.5625C2.8125 33.1016 4.81641 31.0625 7.3125 31.0625C9.77344 31.0625 11.8125 33.1016 11.8125 35.5625C11.8125 38.0586 9.77344 40.0625 7.3125 40.0625Z" fill="#FFB30E"/>
<path d="M31.3118 43.216C30.5438 43.216 29.7758 43.078 29.0078 42.802C28.2518 42.514 27.5738 42.088 26.9738 41.524L28.4858 39.706C28.9058 40.066 29.3678 40.36 29.8718 40.588C30.3878 40.816 30.8918 40.93 31.3838 40.93C31.9358 40.93 32.3438 40.828 32.6078 40.624C32.8838 40.42 33.0218 40.144 33.0218 39.796C33.0218 39.616 32.9798 39.46 32.8958 39.328C32.8238 39.196 32.7098 39.082 32.5538 38.986C32.4098 38.878 32.2298 38.782 32.0138 38.698C31.8098 38.602 31.5818 38.5 31.3298 38.392L29.7998 37.744C29.4998 37.624 29.2058 37.468 28.9178 37.276C28.6418 37.084 28.3898 36.862 28.1618 36.61C27.9458 36.346 27.7718 36.046 27.6398 35.71C27.5078 35.362 27.4418 34.972 27.4418 34.54C27.4418 34.06 27.5438 33.61 27.7478 33.19C27.9518 32.758 28.2398 32.386 28.6118 32.074C28.9838 31.75 29.4218 31.498 29.9258 31.318C30.4418 31.138 31.0058 31.048 31.6178 31.048C32.3018 31.048 32.9738 31.18 33.6338 31.444C34.3058 31.708 34.8938 32.092 35.3978 32.596L34.0478 34.27C33.6638 33.97 33.2798 33.742 32.8958 33.586C32.5118 33.418 32.0858 33.334 31.6178 33.334C31.1618 33.334 30.7958 33.43 30.5198 33.622C30.2558 33.802 30.1238 34.06 30.1238 34.396C30.1238 34.576 30.1658 34.732 30.2498 34.864C30.3458 34.984 30.4718 35.098 30.6278 35.206C30.7958 35.302 30.9878 35.398 31.2038 35.494C31.4198 35.578 31.6538 35.674 31.9058 35.782L33.4178 36.394C34.1378 36.682 34.7018 37.078 35.1098 37.582C35.5298 38.086 35.7398 38.752 35.7398 39.58C35.7398 40.072 35.6378 40.54 35.4337 40.984C35.2418 41.416 34.9538 41.8 34.5698 42.136C34.1978 42.46 33.7358 42.724 33.1838 42.928C32.6318 43.12 32.0078 43.216 31.3118 43.216ZM41.5117 43.216C40.8757 43.216 40.2817 43.114 39.7297 42.91C39.1777 42.694 38.6977 42.388 38.2897 41.992C37.8817 41.584 37.5637 41.092 37.3357 40.516C37.1077 39.94 36.9937 39.28 36.9937 38.536C36.9937 37.816 37.1137 37.168 37.3537 36.592C37.5937 36.004 37.9057 35.512 38.2897 35.116C38.6857 34.708 39.1357 34.396 39.6397 34.18C40.1437 33.964 40.6657 33.856 41.2057 33.856C41.8417 33.856 42.3937 33.964 42.8617 34.18C43.3417 34.396 43.7377 34.696 44.0497 35.08C44.3737 35.464 44.6137 35.92 44.7697 36.448C44.9257 36.964 45.0037 37.528 45.0037 38.14C45.0037 38.38 44.9917 38.608 44.9677 38.824C44.9437 39.04 44.9197 39.202 44.8957 39.31H39.5497C39.6697 39.958 39.9337 40.438 40.3417 40.75C40.7617 41.05 41.2717 41.2 41.8717 41.2C42.5077 41.2 43.1497 41.002 43.7977 40.606L44.6797 42.208C44.2237 42.52 43.7137 42.766 43.1497 42.946C42.5977 43.126 42.0517 43.216 41.5117 43.216ZM39.5317 37.564H42.7537C42.7537 37.06 42.6397 36.652 42.4117 36.34C42.1837 36.028 41.7997 35.872 41.2597 35.872C40.8397 35.872 40.4677 36.01 40.1437 36.286C39.8317 36.562 39.6277 36.988 39.5317 37.564ZM48.8888 43.216C48.4808 43.216 48.1088 43.144 47.7728 43C47.4488 42.868 47.1728 42.682 46.9448 42.442C46.7168 42.19 46.5368 41.902 46.4048 41.578C46.2848 41.254 46.2248 40.9 46.2248 40.516C46.2248 39.58 46.6208 38.848 47.4128 38.32C48.2048 37.792 49.4828 37.438 51.2468 37.258C51.2228 36.862 51.1028 36.55 50.8868 36.322C50.6828 36.082 50.3348 35.962 49.8428 35.962C49.4588 35.962 49.0748 36.034 48.6908 36.178C48.3188 36.322 47.9168 36.52 47.4848 36.772L46.5308 35.026C47.1068 34.678 47.7068 34.396 48.3308 34.18C48.9668 33.964 49.6388 33.856 50.3468 33.856C51.4988 33.856 52.3748 34.186 52.9748 34.846C53.5868 35.494 53.8928 36.508 53.8928 37.888V43H51.7328L51.5528 42.082H51.4808C51.0968 42.418 50.6948 42.694 50.2748 42.91C49.8548 43.114 49.3928 43.216 48.8888 43.216ZM49.7888 41.164C50.0888 41.164 50.3468 41.098 50.5628 40.966C50.7788 40.834 51.0068 40.648 51.2468 40.408V38.842C50.3108 38.974 49.6628 39.166 49.3028 39.418C48.9428 39.67 48.7628 39.97 48.7628 40.318C48.7628 40.606 48.8528 40.822 49.0328 40.966C49.2248 41.098 49.4768 41.164 49.7888 41.164ZM56.1309 43V34.072H58.2909L58.4709 35.638H58.5429C58.8669 35.026 59.2569 34.576 59.7129 34.288C60.1689 34 60.6249 33.856 61.0809 33.856C61.3329 33.856 61.5369 33.874 61.6929 33.91C61.8609 33.934 62.0109 33.976 62.1429 34.036L61.7109 36.322C61.5429 36.274 61.3869 36.238 61.2429 36.214C61.0989 36.19 60.9309 36.178 60.7389 36.178C60.4029 36.178 60.0489 36.298 59.6769 36.538C59.3169 36.778 59.0169 37.204 58.7769 37.816V43H56.1309ZM67.015 43.216C66.391 43.216 65.809 43.114 65.269 42.91C64.741 42.694 64.279 42.388 63.883 41.992C63.487 41.596 63.175 41.11 62.947 40.534C62.719 39.946 62.605 39.28 62.605 38.536C62.605 37.792 62.731 37.132 62.983 36.556C63.235 35.968 63.571 35.476 63.991 35.08C64.423 34.684 64.921 34.384 65.485 34.18C66.049 33.964 66.637 33.856 67.249 33.856C67.801 33.856 68.287 33.946 68.707 34.126C69.139 34.306 69.523 34.534 69.859 34.81L68.617 36.52C68.197 36.172 67.795 35.998 67.411 35.998C66.763 35.998 66.253 36.226 65.881 36.682C65.509 37.138 65.323 37.756 65.323 38.536C65.323 39.316 65.509 39.934 65.881 40.39C66.265 40.846 66.745 41.074 67.321 41.074C67.609 41.074 67.885 41.014 68.149 40.894C68.425 40.762 68.683 40.606 68.923 40.426L69.967 42.154C69.523 42.538 69.043 42.814 68.527 42.982C68.011 43.138 67.507 43.216 67.015 43.216ZM71.5294 43V30.382H74.1754V33.478L74.0494 35.08C74.3854 34.78 74.7754 34.504 75.2194 34.252C75.6634 33.988 76.1914 33.856 76.8034 33.856C77.7754 33.856 78.4774 34.174 78.9094 34.81C79.3534 35.446 79.5754 36.328 79.5754 37.456V43H76.9294V37.798C76.9294 37.15 76.8394 36.706 76.6594 36.466C76.4914 36.226 76.2154 36.106 75.8314 36.106C75.4954 36.106 75.2074 36.184 74.9674 36.34C74.7274 36.484 74.4634 36.694 74.1754 36.97V43H71.5294ZM85.6321 43V31.264H93.0301V33.496H88.2781V36.214H92.3461V38.446H88.2781V43H85.6321ZM98.3731 43.216C97.8091 43.216 97.2631 43.114 96.7351 42.91C96.2071 42.694 95.7391 42.388 95.3311 41.992C94.9351 41.596 94.6171 41.11 94.3771 40.534C94.1371 39.946 94.0171 39.28 94.0171 38.536C94.0171 37.792 94.1371 37.132 94.3771 36.556C94.6171 35.968 94.9351 35.476 95.3311 35.08C95.7391 34.684 96.2071 34.384 96.7351 34.18C97.2631 33.964 97.8091 33.856 98.3731 33.856C98.9371 33.856 99.4771 33.964 99.9931 34.18C100.521 34.384 100.983 34.684 101.379 35.08C101.787 35.476 102.111 35.968 102.351 36.556C102.591 37.132 102.711 37.792 102.711 38.536C102.711 39.28 102.591 39.946 102.351 40.534C102.111 41.11 101.787 41.596 101.379 41.992C100.983 42.388 100.521 42.694 99.9931 42.91C99.4771 43.114 98.9371 43.216 98.3731 43.216ZM98.3731 41.074C98.9131 41.074 99.3211 40.846 99.5971 40.39C99.8731 39.934 100.011 39.316 100.011 38.536C100.011 37.756 99.8731 37.138 99.5971 36.682C99.3211 36.226 98.9131 35.998 98.3731 35.998C97.8211 35.998 97.4071 36.226 97.1311 36.682C96.8671 37.138 96.7351 37.756 96.7351 38.536C96.7351 39.316 96.8671 39.934 97.1311 40.39C97.4071 40.846 97.8211 41.074 98.3731 41.074ZM108.358 43.216C107.794 43.216 107.248 43.114 106.72 42.91C106.192 42.694 105.724 42.388 105.316 41.992C104.92 41.596 104.602 41.11 104.362 40.534C104.122 39.946 104.002 39.28 104.002 38.536C104.002 37.792 104.122 37.132 104.362 36.556C104.602 35.968 104.92 35.476 105.316 35.08C105.724 34.684 106.192 34.384 106.72 34.18C107.248 33.964 107.794 33.856 108.358 33.856C108.922 33.856 109.462 33.964 109.978 34.18C110.506 34.384 110.968 34.684 111.364 35.08C111.772 35.476 112.096 35.968 112.336 36.556C112.576 37.132 112.696 37.792 112.696 38.536C112.696 39.28 112.576 39.946 112.336 40.534C112.096 41.11 111.772 41.596 111.364 41.992C110.968 42.388 110.506 42.694 109.978 42.91C109.462 43.114 108.922 43.216 108.358 43.216ZM108.358 41.074C108.898 41.074 109.306 40.846 109.582 40.39C109.858 39.934 109.996 39.316 109.996 38.536C109.996 37.756 109.858 37.138 109.582 36.682C109.306 36.226 108.898 35.998 108.358 35.998C107.806 35.998 107.392 36.226 107.116 36.682C106.852 37.138 106.72 37.756 106.72 38.536C106.72 39.316 106.852 39.934 107.116 40.39C107.392 40.846 107.806 41.074 108.358 41.074ZM117.694 43.216C117.142 43.216 116.638 43.108 116.182 42.892C115.738 42.676 115.354 42.37 115.03 41.974C114.718 41.566 114.472 41.074 114.292 40.498C114.124 39.922 114.04 39.268 114.04 38.536C114.04 37.804 114.142 37.15 114.346 36.574C114.562 35.998 114.838 35.512 115.174 35.116C115.522 34.708 115.918 34.396 116.362 34.18C116.818 33.964 117.28 33.856 117.748 33.856C118.252 33.856 118.666 33.94 118.99 34.108C119.314 34.276 119.632 34.504 119.944 34.792L119.836 33.424V30.382H122.482V43H120.322L120.142 42.118H120.07C119.758 42.43 119.392 42.694 118.972 42.91C118.552 43.114 118.126 43.216 117.694 43.216ZM118.378 41.056C118.666 41.056 118.924 40.996 119.152 40.876C119.392 40.756 119.62 40.546 119.836 40.246V36.592C119.596 36.376 119.35 36.226 119.098 36.142C118.846 36.058 118.6 36.016 118.36 36.016C117.94 36.016 117.568 36.22 117.244 36.628C116.92 37.024 116.758 37.648 116.758 38.5C116.758 39.388 116.896 40.036 117.172 40.444C117.46 40.852 117.862 41.056 118.378 41.056Z" fill="#424242"/>
<g filter="url(#filter0_dd_401_1274)">
<rect x="154" y="14" width="118" height="46" rx="8" fill="white"/>
<path d="M186 37.25C183.504 37.25 181.5 35.2461 181.5 32.75C181.5 30.2891 183.504 28.25 186 28.25C188.461 28.25 190.5 30.2891 190.5 32.75C190.5 35.2461 188.461 37.25 186 37.25ZM189.129 38.375C191.73 38.375 193.875 40.5195 193.875 43.1211V44.5625C193.875 45.5117 193.102 46.25 192.188 46.25H179.812C178.863 46.25 178.125 45.5117 178.125 44.5625V43.1211C178.125 40.5195 180.234 38.375 182.836 38.375H183.434C184.207 38.7617 185.086 38.9375 186 38.9375C186.914 38.9375 187.758 38.7617 188.531 38.375H189.129Z" fill="url(#paint0_linear_401_1274)"/>
<path d="M205.413 43V31.264H208.059V40.768H212.703V43H205.413ZM218.102 43.216C217.538 43.216 216.992 43.114 216.464 42.91C215.936 42.694 215.468 42.388 215.06 41.992C214.664 41.596 214.346 41.11 214.106 40.534C213.866 39.946 213.746 39.28 213.746 38.536C213.746 37.792 213.866 37.132 214.106 36.556C214.346 35.968 214.664 35.476 215.06 35.08C215.468 34.684 215.936 34.384 216.464 34.18C216.992 33.964 217.538 33.856 218.102 33.856C218.666 33.856 219.206 33.964 219.722 34.18C220.25 34.384 220.712 34.684 221.108 35.08C221.516 35.476 221.84 35.968 222.08 36.556C222.32 37.132 222.44 37.792 222.44 38.536C222.44 39.28 222.32 39.946 222.08 40.534C221.84 41.11 221.516 41.596 221.108 41.992C220.712 42.388 220.25 42.694 219.722 42.91C219.206 43.114 218.666 43.216 218.102 43.216ZM218.102 41.074C218.642 41.074 219.05 40.846 219.326 40.39C219.602 39.934 219.74 39.316 219.74 38.536C219.74 37.756 219.602 37.138 219.326 36.682C219.05 36.226 218.642 35.998 218.102 35.998C217.55 35.998 217.136 36.226 216.86 36.682C216.596 37.138 216.464 37.756 216.464 38.536C216.464 39.316 216.596 39.934 216.86 40.39C217.136 40.846 217.55 41.074 218.102 41.074ZM227.438 46.798C226.91 46.798 226.418 46.75 225.962 46.654C225.518 46.57 225.122 46.438 224.774 46.258C224.438 46.078 224.174 45.844 223.982 45.556C223.79 45.268 223.694 44.926 223.694 44.53C223.694 43.81 224.12 43.21 224.972 42.73V42.658C224.732 42.502 224.534 42.304 224.378 42.064C224.222 41.824 224.144 41.518 224.144 41.146C224.144 40.822 224.24 40.516 224.432 40.228C224.624 39.928 224.864 39.676 225.152 39.472V39.4C224.84 39.184 224.558 38.878 224.306 38.482C224.066 38.074 223.946 37.606 223.946 37.078C223.946 36.538 224.048 36.07 224.252 35.674C224.456 35.266 224.726 34.93 225.062 34.666C225.41 34.39 225.806 34.186 226.25 34.054C226.694 33.922 227.156 33.856 227.636 33.856C228.164 33.856 228.626 33.928 229.022 34.072H232.28V35.998H230.858C230.942 36.13 231.008 36.298 231.056 36.502C231.116 36.706 231.146 36.928 231.146 37.168C231.146 37.684 231.056 38.134 230.876 38.518C230.696 38.89 230.444 39.202 230.12 39.454C229.808 39.694 229.436 39.874 229.004 39.994C228.584 40.114 228.128 40.174 227.636 40.174C227.288 40.174 226.928 40.114 226.556 39.994C226.436 40.09 226.352 40.186 226.304 40.282C226.256 40.378 226.232 40.504 226.232 40.66C226.232 40.888 226.328 41.056 226.52 41.164C226.724 41.272 227.078 41.326 227.582 41.326H229.022C230.126 41.326 230.966 41.506 231.542 41.866C232.13 42.214 232.424 42.79 232.424 43.594C232.424 44.062 232.304 44.488 232.064 44.872C231.836 45.268 231.506 45.604 231.074 45.88C230.642 46.168 230.12 46.39 229.508 46.546C228.896 46.714 228.206 46.798 227.438 46.798ZM227.636 38.572C227.984 38.572 228.272 38.452 228.5 38.212C228.74 37.96 228.86 37.582 228.86 37.078C228.86 36.61 228.74 36.256 228.5 36.016C228.272 35.764 227.984 35.638 227.636 35.638C227.288 35.638 226.994 35.758 226.754 35.998C226.526 36.238 226.412 36.598 226.412 37.078C226.412 37.582 226.526 37.96 226.754 38.212C226.994 38.452 227.288 38.572 227.636 38.572ZM227.852 45.142C228.452 45.142 228.944 45.034 229.328 44.818C229.712 44.614 229.904 44.356 229.904 44.044C229.904 43.768 229.784 43.582 229.544 43.486C229.316 43.39 228.98 43.342 228.536 43.342H227.618C227.306 43.342 227.054 43.33 226.862 43.306C226.67 43.294 226.502 43.27 226.358 43.234C226.034 43.522 225.872 43.816 225.872 44.116C225.872 44.452 226.052 44.704 226.412 44.872C226.772 45.052 227.252 45.142 227.852 45.142ZM233.867 43V34.072H236.513V43H233.867ZM235.181 32.758C234.737 32.758 234.371 32.632 234.083 32.38C233.795 32.116 233.651 31.78 233.651 31.372C233.651 30.964 233.795 30.634 234.083 30.382C234.371 30.13 234.737 30.004 235.181 30.004C235.637 30.004 236.003 30.13 236.279 30.382C236.567 30.634 236.711 30.964 236.711 31.372C236.711 31.78 236.567 32.116 236.279 32.38C236.003 32.632 235.637 32.758 235.181 32.758ZM238.842 43V34.072H241.002L241.182 35.206H241.254C241.638 34.846 242.058 34.534 242.514 34.27C242.97 33.994 243.504 33.856 244.116 33.856C245.088 33.856 245.79 34.174 246.222 34.81C246.666 35.446 246.888 36.328 246.888 37.456V43H244.242V37.798C244.242 37.15 244.152 36.706 243.972 36.466C243.804 36.226 243.528 36.106 243.144 36.106C242.808 36.106 242.52 36.184 242.28 36.34C242.04 36.484 241.776 36.694 241.488 36.97V43H238.842Z" fill="url(#paint1_linear_401_1274)"/>
</g>
<defs>
<filter id="filter0_dd_401_1274" x="114" y="-6" width="198" height="126" filterUnits="userSpaceOnUse" color-interpolation-filters="sRGB">
<feFlood flood-opacity="0" result="BackgroundImageFix"/>
<feColorMatrix in="SourceAlpha" type="matrix" values="0 0 0 0 0 0 0 0 0 0 0 0 0 0 0 0 0 0 127 0" result="hardAlpha"/>
<feOffset dy="20"/>
<feGaussianBlur stdDeviation="20"/>
<feColorMatrix type="matrix" values="0 0 0 0 1 0 0 0 0 0.680498 0 0 0 0 0 0 0 0 0.29 0"/>
<feBlend mode="normal" in2="BackgroundImageFix" result="effect1_dropShadow_401_1274"/>
<feColorMatrix in="SourceAlpha" type="matrix" values="0 0 0 0 0 0 0 0 0 0 0 0 0 0 0 0 0 0 127 0" result="hardAlpha"/>
<feOffset dy="5"/>
<feGaussianBlur stdDeviation="5"/>
<feColorMatrix type="matrix" values="0 0 0 0 1 0 0 0 0 0.680498 0 0 0 0 0 0 0 0 0.26 0"/>
<feBlend mode="normal" in2="effect1_dropShadow_401_1274" result="effect2_dropShadow_401_1274"/>
<feBlend mode="normal" in="SourceGraphic" in2="effect2_dropShadow_401_1274" result="shape"/>
</filter>
<linearGradient id="paint0_linear_401_1274" x1="170.972" y1="5.64997" x2="201.903" y2="7.01517" gradientUnits="userSpaceOnUse">
<stop stop-color="#FFB800"/>
<stop offset="1" stop-color="#FF8A00"/>
</linearGradient>
<linearGradient id="paint1_linear_401_1274" x1="184.672" y1="5.64997" x2="268.663" y2="15.8443" gradientUnits="userSpaceOnUse">
<stop stop-color="#FFB800"/>
<stop offset="1" stop-color="#FF8A00"/>
</linearGradient>
</defs>
</svg>
